{"asset":{"generator":"Khronos glTF Blender I/O v0.9.36","version":"2.0"},"scene":0,"scenes":[{"name":"Scene","nodes":[0,1,2,3,4,5,6,7,8,9,10]}],"nodes":[{"mesh":0,"name":"Cube"},{"name":"Light","rotation":[0.16907575726509094,0.7558803558349609,-0.27217137813568115,0.570947527885437],"translation":[4.076245307922363,5.903861999511719,-1.0054539442062378]},{"name":"Camera","rotation":[0.483536034822464,0.33687159419059753,-0.20870360732078552,0.7804827094078064],"translation":[7.358891487121582,4.958309173583984,6.925790786743164]},{"mesh":1,"name":"Cone001","scale":[0.30480000376701355,0.30480000376701355,0.30480000376701355]},{"mesh":2,"name":"Box001","scale":[0.30480000376701355,0.30480000376701355,0.30480000376701355],"translation":[-112.91039276123047,0,1.3204784393310547]},{"mesh":3,"name":"Sphere001","scale":[0.30480000376701355,0.30480000376701355,0.30480000376701355],"translation":[117.68724822998047,44.30410385131836,-0.0802827849984169]},{"mesh":4,"name":"Box002","rotation":[0.7071068286895752,0,0,0.7071067094802856],"scale":[0.30480000376701355,0.30480000376701355,0.30480000376701355],"translation":[-18.53960418701172,423.84356689453125,0.00001152361073764041]},{"mesh":5,"name":"Cylinder001","scale":[0.30480000376701355,0.30480000376701355,0.30480000376701355],"translation":[204.74961853027344,0,10.486767768859863]},{"mesh":6,"name":"Cylinder002","scale":[0.30480000376701355,0.30480000376701355,0.30480000376701355],"translation":[-243.97007751464844,0,10.486767768859863]},{"name":"Omni001","scale":[0.30480000376701355,0.30480000376701355,0.30480000376701355],"translation":[15.50844669342041,421.3940124511719,180.17218017578125]},{"name":"Omni002","scale":[0.30480000376701355,0.30480000376701355,0.30480000376701355],"translation":[13.527470588684082,374.2652587890625,-114.99314880371094]}],"materials":[{"doubleSided":true,"name":"Material","pbrMetallicRoughness":{"baseColorFactor":[0.800000011920929,0.800000011920929,0.800000011920929,1],"metallicFactor":0,"roughnessFactor":0.4000000059604645}},{"doubleSided":true,"name":"cone","pbrMetallicRoughness":{"baseColorFactor":[1,0.9568628072738647,0.13725490868091583,1],"metallicFactor":0.0981818437576294,"roughnessFactor":0.858578622341156}},{"doubleSided":true,"name":"blue","pbrMetallicRoughness":{"baseColorFactor":[0,0.5647059082984924,1,1],"metallicFactor":0.054545462131500244,"roughnessFactor":0.858578622341156}},{"doubleSided":true,"name":"red","pbrMetallicRoughness":{"baseColorFactor":[1,0.13725490868091583,0.13725490868091583,1],"metallicFactor":0.09090906381607056,"roughnessFactor":0.858578622341156}},{"doubleSided":true,"name":"green","pbrMetallicRoughness":{"baseColorTexture":{"index":0,"texCoord":0},"metallicFactor":0.16363638639450073,"roughnessFactor":1}},{"doubleSided":true,"name":"metal","pbrMetallicRoughness":{"baseColorFactor":[0.7098039388656616,0.7411764860153198,0.7019608020782471,1],"metallicFactor":0.2545454502105713,"roughnessFactor":1}}],"meshes":[{"name":"Cube","primitives":[{"attributes":{"POSITION":0,"NORMAL":1,"TEXCOORD_0":2},"indices":3,"material":0}]},{"name":"Mesh","primitives":[{"attributes":{"POSITION":4,"NORMAL":5,"TEXCOORD_0":6},"indices":7,"material":1}]},{"name":"Mesh.001","primitives":[{"attributes":{"POSITION":8,"NORMAL":9,"TEXCOORD_0":10},"indices":3,"material":2}]},{"name":"Mesh.002","primitives":[{"attributes":{"POSITION":11,"NORMAL":12,"TEXCOORD_0":13},"indices":14,"material":3}]},{"name":"Mesh.003","primitives":[{"attributes":{"POSITION":15,"NORMAL":16,"TEXCOORD_0":17},"indices":18,"material":4}]},{"name":"Mesh.004","primitives":[{"attributes":{"POSITION":19,"NORMAL":20,"TEXCOORD_0":21},"indices":22,"material":5}]},{"name":"Mesh.005","primitives":[{"attributes":{"POSITION":23,"NORMAL":24,"TEXCOORD_0":25},"indices":22,"material":5}]}],"textures":[{"source":0}],"images":[{"mimeType":"image/jpeg","name":"Map #2","uri":"data:application/octet-stream;base64,"}],"accessors":[{"bufferView":0,"componentType":5126,"count":24,"max":[1,1,1],"min":[-1,-1,-1],"type":"VEC3"},{"bufferView":1,"componentType":5126,"count":24,"type":"VEC3"},{"bufferView":2,"componentType":5126,"count":24,"type":"VEC2"},{"bufferView":3,"componentType":5123,"count":36,"type":"SCALAR"},{"bufferView":4,"componentType":5126,"count":123,"max":[150,300,150],"min":[-150,0,-150],"type":"VEC3"},{"bufferView":5,"componentType":5126,"count":123,"type":"VEC3"},{"bufferView":6,"componentType":5126,"count":123,"type":"VEC2"},{"bufferView":7,"componentType":5123,"count":288,"type":"SCALAR"},{"bufferView":8,"componentType":5126,"count":24,"max":[100,200,100],"min":[-100,0,-100],"type":"VEC3"},{"bufferView":9,"componentType":5126,"count":24,"type":"VEC3"},{"bufferView":10,"componentType":5126,"count":24,"type":"VEC2"},{"bufferView":11,"componentType":5126,"count":118,"max":[127.47857666015625,134.11956787109375,130.7569122314453],"min":[-127.47856140136719,-134.11956787109375,-130.7569122314453],"type":"VEC3"},{"bufferView":12,"componentType":5126,"count":118,"type":"VEC3"},{"bufferView":13,"componentType":5126,"count":118,"type":"VEC2"},{"bufferView":14,"componentType":5123,"count":504,"type":"SCALAR"},{"bufferView":15,"componentType":5126,"count":24,"max":[775,74.33441162109375,775],"min":[-775,0,-775],"type":"VEC3"},{"bufferView":16,"componentType":5126,"count":24,"type":"VEC3"},{"bufferView":17,"componentType":5126,"count":24,"type":"VEC2"},{"bufferView":18,"componentType":5123,"count":36,"type":"SCALAR"},{"bufferView":19,"componentType":5126,"count":46,"max":[24.252553939819336,640.978759765625,23.065547943115234],"min":[-24.252553939819336,0,-23.065549850463867],"type":"VEC3"},{"bufferView":20,"componentType":5126,"count":46,"type":"VEC3"},{"bufferView":21,"componentType":5126,"count":46,"type":"VEC2"},{"bufferView":22,"componentType":5123,"count":120,"type":"SCALAR"},{"bufferView":23,"componentType":5126,"count":46,"max":[24.252553939819336,640.978759765625,23.065547943115234],"min":[-24.252553939819336,0,-23.065549850463867],"type":"VEC3"},{"bufferView":24,"componentType":5126,"count":46,"type":"VEC3"},{"bufferView":25,"componentType":5126,"count":46,"type":"VEC2"}],"bufferViews":[{"buffer":0,"byteLength":288,"byteOffset":0},{"buffer":0,"byteLength":288,"byteOffset":288},{"buffer":0,"byteLength":192,"byteOffset":576},{"buffer":0,"byteLength":72,"byteOffset":768},{"buffer":0,"byteLength":1476,"byteOffset":840},{"buffer":0,"byteLength":1476,"byteOffset":2316},{"buffer":0,"byteLength":984,"byteOffset":3792},{"buffer":0,"byteLength":576,"byteOffset":4776},{"buffer":0,"byteLength":288,"byteOffset":5352},{"buffer":0,"byteLength":288,"byteOffset":5640},{"buffer":0,"byteLength":192,"byteOffset":5928},{"buffer":0,"byteLength":1416,"byteOffset":6120},{"buffer":0,"byteLength":1416,"byteOffset":7536},{"buffer":0,"byteLength":944,"byteOffset":8952},{"buffer":0,"byteLength":1008,"byteOffset":9896},{"buffer":0,"byteLength":288,"byteOffset":10904},{"buffer":0,"byteLength":288,"byteOffset":11192},{"buffer":0,"byteLength":192,"byteOffset":11480},{"buffer":0,"byteLength":72,"byteOffset":11672},{"buffer":0,"byteLength":552,"byteOffset":11744},{"buffer":0,"byteLength":552,"byteOffset":12296},{"buffer":0,"byteLength":368,"byteOffset":12848},{"buffer":0,"byteLength":240,"byteOffset":13216},{"buffer":0,"byteLength":552,"byteOffset":13456},{"buffer":0,"byteLength":552,"byteOffset":14008},{"buffer":0,"byteLength":368,"byteOffset":14560}],"buffers":[{"byteLength":14928,"uri":"data:application/octet-stream;base64,"}]}